<?xml version="1.0" standalone="no"?>
<!DOCTYPE svg PUBLIC "-//W3C//DTD SVG 20010904//EN"
 "http://www.w3.org/TR/2001/REC-SVG-20010904/DTD/svg10.dtd">
<svg version="1.0" xmlns="http://www.w3.org/2000/svg"
 width="511.000000pt" height="511.000000pt" viewBox="0 0 511.000000 511.000000"
 preserveAspectRatio="xMidYMid meet">
<metadata>
Created by potrace 1.11, written by Peter Selinger 2001-2013
</metadata>
<g transform="translate(0.000000,511.000000) scale(0.100000,-0.100000)"
fill="#000000" stroke="none">
<path d="M3064 5053 c5 -12 3 -13 -6 -6 -15 12 -48 13 -48 2 0 -4 -15 -6 -34
-4 -27 1 -33 -1 -28 -13 4 -12 0 -14 -16 -10 -12 4 -20 2 -17 -2 3 -5 1 -11
-5 -15 -5 -3 -10 -2 -10 2 0 5 -9 9 -19 9 -11 0 -17 -4 -15 -8 3 -4 1 -8 -5
-8 -5 0 -13 5 -16 10 -4 6 -12 7 -23 1 -11 -6 -20 -4 -29 7 -12 15 -12 15 -6
-3 6 -20 6 -20 -16 -1 -21 19 -61 29 -61 16 0 -4 -7 -7 -15 -7 -8 0 -15 5 -15
11 0 7 -3 7 -8 1 -12 -17 -34 -17 -47 1 -9 13 -14 14 -20 4 -6 -9 -4 -11 5 -5
9 6 11 4 5 -5 -6 -10 -11 -10 -20 4 -7 9 -19 14 -29 10 -9 -4 -16 -1 -16 6 0
10 -3 10 -15 0 -11 -9 -18 -10 -28 -1 -8 6 -17 8 -20 5 -3 -4 -30 -7 -60 -8
-30 0 -61 -7 -70 -14 -11 -9 -17 -10 -22 -2 -5 8 -11 8 -21 -1 -8 -6 -14 -8
-15 -3 0 5 -4 0 -9 -11 -7 -16 -9 -17 -9 -3 -1 9 -5 19 -10 22 -4 3 -7 -6 -5
-19 2 -22 0 -24 -18 -14 -12 7 -18 7 -14 1 7 -11 -40 -26 -54 -17 -5 3 -15 -3
-22 -14 -9 -15 -15 -17 -25 -9 -10 8 -12 7 -8 -5 4 -8 1 -18 -6 -23 -7 -4 -10
-3 -5 4 11 19 -23 7 -48 -17 -14 -13 -32 -21 -40 -18 -11 4 -14 0 -11 -14 4
-18 2 -19 -12 -7 -15 11 -16 11 -10 -4 4 -13 2 -15 -10 -11 -13 5 -15 2 -9
-12 7 -18 6 -18 -12 -2 -19 17 -19 17 -15 -8 6 -26 -5 -33 -24 -14 -8 8 -13 7
-18 -2 -5 -7 -4 -10 2 -6 6 4 14 0 17 -9 3 -8 2 -12 -3 -9 -5 3 -12 -4 -16
-15 -3 -11 -12 -19 -18 -17 -7 1 -12 -8 -11 -20 1 -21 -8 -28 -29 -24 -4 1 -3
-8 4 -20 10 -19 9 -21 -5 -16 -9 4 -15 1 -13 -6 1 -7 -4 -11 -11 -9 -8 1 -11
-2 -8 -7 4 -5 2 -12 -3 -16 -6 -3 -7 -13 -4 -22 5 -12 3 -14 -7 -8 -9 6 -11 4
-5 -6 11 -17 14 -49 5 -49 -6 0 -8 -5 -12 -47 -1 -10 -7 -24 -15 -31 -10 -11
-11 -17 -2 -28 9 -11 9 -14 0 -14 -7 0 -10 -4 -7 -9 4 -5 1 -11 -6 -13 -6 -2
-12 -12 -14 -21 -1 -9 2 -15 6 -12 5 3 12 0 16 -6 4 -8 3 -9 -5 -5 -6 4 -14 0
-17 -8 -3 -9 -11 -13 -16 -10 -6 4 -5 -2 1 -14 15 -29 14 -40 -2 -17 -11 14
-16 15 -22 5 -5 -9 -4 -11 3 -6 7 4 12 2 12 -3 0 -10 -14 -15 -33 -12 -4 1 -2
-9 4 -21 11 -21 11 -22 -5 -9 -15 13 -17 12 -12 -12 4 -23 2 -26 -13 -18 -13
7 -18 6 -18 -4 0 -8 5 -11 10 -8 6 4 7 1 3 -6 -5 -7 -15 -10 -25 -7 -11 4 -10
2 4 -10 20 -15 19 -15 -5 -12 -14 2 -27 -1 -29 -7 -5 -13 -44 -41 -53 -38 -4
2 -5 -4 -1 -12 5 -14 7 -13 18 1 9 14 14 14 20 4 5 -8 4 -11 -2 -7 -6 4 -14 0
-17 -9 -5 -13 -9 -14 -21 -4 -13 11 -14 10 -9 -5 5 -13 4 -16 -4 -11 -8 5 -10
1 -5 -10 5 -13 3 -15 -8 -9 -12 8 -12 6 0 -8 7 -9 10 -17 7 -17 -4 0 -2 -10 5
-21 8 -16 8 -20 -1 -14 -9 5 -8 1 1 -16 7 -13 12 -31 10 -39 -2 -10 3 -8 13 5
10 13 14 14 11 4 -3 -9 4 -23 17 -35 l23 -19 -20 25 -20 25 20 -16 c11 -9 29
-22 40 -28 15 -9 15 -11 3 -7 -10 3 -18 1 -18 -4 0 -6 4 -10 10 -10 5 0 7 -7
4 -15 -5 -11 -10 -13 -19 -5 -9 8 -15 8 -20 0 -3 -6 -11 -7 -18 -3 -15 9 -57
10 -57 2 0 -9 -27 -6 -36 4 -4 4 -13 2 -21 -4 -10 -9 -17 -8 -28 1 -8 7 -15 8
-15 3 0 -5 -9 -9 -20 -9 -11 0 -20 4 -20 9 0 5 -6 5 -13 -2 -10 -8 -17 -7 -25
1 -7 7 -12 8 -12 2 0 -6 -7 -11 -15 -11 -8 0 -15 5 -15 10 0 5 -7 3 -17 -4 -9
-8 -18 -13 -20 -11 -1 1 -3 -1 -2 -4 0 -4 -5 -11 -13 -15 -8 -6 -9 -12 -3 -16
12 -10 14 -83 2 -83 -4 0 -6 -4 -3 -8 2 -4 -4 -8 -14 -8 -10 0 -16 4 -14 8 3
4 0 8 -5 8 -6 0 -11 -4 -11 -9 0 -5 -12 -8 -26 -6 -14 1 -31 -3 -38 -11 -10
-9 -16 -10 -25 -1 -6 6 -11 7 -11 1 0 -5 -9 -10 -20 -10 -11 0 -20 4 -20 9 0
5 -6 5 -13 -2 -10 -7 -17 -7 -24 0 -8 8 -13 7 -18 -2 -6 -8 -4 -10 6 -4 12 8
12 6 0 -8 -14 -18 -22 -22 -20 -9 3 19 -2 22 -17 8 -12 -12 -20 -13 -35 -6
-10 6 -19 7 -19 2 0 -4 -16 -8 -36 -9 -20 0 -40 -6 -44 -13 -10 -16 -15 -17
-33 -2 -10 9 -17 10 -22 2 -3 -6 -11 -8 -16 -5 -17 11 -31 -6 -18 -21 9 -11 9
-17 -1 -29 -7 -8 -8 -15 -3 -15 5 0 9 -9 10 -20 1 -13 -2 -18 -9 -14 -7 5 -8
2 -3 -7 12 -18 14 -49 3 -43 -4 3 -8 1 -8 -5 0 -5 6 -11 12 -14 10 -3 9 -8 -2
-22 -12 -14 -12 -19 -2 -23 10 -3 8 -7 -5 -17 -11 -9 -25 -10 -40 -4 -15 5
-23 5 -23 -2 0 -6 -4 -8 -9 -4 -5 3 -12 1 -16 -5 -3 -5 -11 -10 -16 -10 -6 0
-8 4 -5 9 4 5 -3 7 -14 4 -11 -3 -18 -9 -15 -13 2 -4 -12 -5 -31 -3 -23 2 -33
0 -29 -7 3 -5 1 -10 -4 -10 -6 0 -11 5 -11 12 0 6 -7 3 -15 -8 -10 -13 -14
-14 -15 -5 0 10 -3 11 -14 2 -11 -9 -15 -9 -19 1 -4 9 -6 10 -6 1 -1 -7 -11
-18 -23 -24 -22 -12 -22 -11 -8 7 14 18 14 18 -11 2 -17 -11 -30 -13 -42 -6
-9 5 -17 5 -17 1 0 -5 -16 -9 -36 -10 -20 0 -39 -5 -43 -9 -10 -14 -30 -15
-53 -3 -16 9 -19 8 -13 -2 6 -9 2 -11 -13 -7 -12 3 -26 1 -31 -6 -6 -6 -31
-11 -58 -10 -26 1 -40 0 -30 -3 9 -2 17 -10 17 -16 0 -7 4 -6 10 3 9 13 10 13
11 0 1 -8 1 -20 0 -27 -1 -6 3 -14 9 -18 5 -3 7 0 4 8 -3 8 0 18 6 22 6 3 10
3 9 -2 -4 -21 2 -34 13 -27 7 5 8 3 3 -6 -6 -10 -4 -12 9 -7 10 4 15 3 11 -3
-3 -6 -1 -10 5 -10 7 0 10 -6 7 -13 -3 -8 -1 -20 5 -28 8 -11 9 -10 4 4 -4 13
5 9 33 -14 24 -19 37 -37 34 -45 -4 -10 0 -12 13 -7 16 6 17 5 6 -9 -10 -13
-10 -18 -1 -24 8 -4 9 -3 5 4 -4 7 -2 12 3 12 6 0 11 -5 11 -11 0 -5 4 -8 9
-5 4 3 16 -3 25 -13 11 -13 14 -21 7 -26 -14 -8 -14 -25 0 -25 5 0 7 5 4 10
-3 6 1 10 10 10 9 0 13 -4 10 -10 -3 -5 -2 -10 3 -10 6 0 13 -7 16 -16 5 -13
3 -14 -6 -6 -10 8 -13 4 -13 -18 -1 -16 3 -26 7 -24 5 3 5 10 2 16 -4 7 -2 8
4 4 8 -5 5 -16 -10 -37 -26 -34 -28 -35 -23 -9 2 11 0 18 -5 15 -4 -3 -7 -16
-5 -30 2 -23 -6 -30 -28 -26 -5 1 -6 -3 -3 -8 3 -5 -1 -14 -9 -21 -12 -10 -13
-16 -3 -27 6 -8 7 -13 2 -12 -27 5 -36 -1 -24 -15 10 -13 7 -14 -17 -10 l-28
4 24 -13 c20 -12 21 -15 6 -21 -9 -3 -22 -3 -27 1 -6 3 -8 1 -5 -4 4 -6 0 -16
-8 -23 -12 -10 -13 -16 -3 -28 7 -9 8 -13 2 -9 -6 3 -20 0 -30 -9 -18 -14 -18
-15 5 -8 21 5 22 4 10 -9 -8 -8 -17 -13 -21 -10 -5 2 -8 -3 -8 -12 0 -9 -4
-14 -9 -10 -5 3 -12 1 -15 -4 -4 -5 -1 -13 5 -17 8 -5 9 -3 4 6 -6 9 -4 11 5
5 10 -6 7 -12 -11 -26 l-24 -18 25 5 c21 5 22 4 10 -6 -12 -10 -12 -11 5 -4
11 4 28 7 37 8 9 0 16 5 15 10 -1 6 10 10 26 10 18 -1 27 4 27 15 0 9 3 12 8
6 10 -13 32 -17 32 -6 0 6 9 9 20 8 11 -1 20 -6 20 -12 0 -5 5 -3 10 5 5 8 10
11 10 6 0 -5 8 -2 17 5 9 8 14 9 10 3 -3 -6 0 -11 7 -11 8 0 12 7 9 14 -6 16
18 14 29 -2 5 -6 8 -5 8 3 0 7 4 11 9 8 5 -3 14 1 20 8 9 10 20 12 41 6 19 -5
32 -5 36 2 3 5 15 7 26 5 14 -4 16 -2 9 6 -7 9 2 12 32 12 23 0 45 -4 49 -10
5 -6 14 -1 24 13 13 19 18 21 31 10 12 -10 17 -9 28 5 9 13 15 15 20 7 5 -8
12 -7 24 4 13 12 20 13 29 4 7 -7 12 -8 12 -2 0 6 7 11 15 11 8 0 15 -5 15
-10 0 -5 6 -5 13 2 10 8 17 7 25 -1 9 -9 12 -8 12 4 0 9 5 20 12 24 6 4 8 3 4
-4 -3 -6 -2 -13 4 -17 5 -3 10 -1 10 5 0 7 7 9 16 6 8 -3 12 -2 9 4 -3 5 4 8
15 7 11 -1 20 -5 20 -9 0 -4 12 -1 27 7 15 8 30 12 35 9 4 -3 8 0 8 7 0 9 3 9
14 0 10 -9 16 -9 21 -1 5 8 11 8 19 1 7 -6 16 -7 20 -3 11 10 30 9 38 -3 5 -6
8 -5 8 4 0 11 3 11 17 0 11 -9 14 -10 9 -2 -4 8 -2 11 7 7 15 -5 19 -34 5 -34
-5 0 -4 -10 3 -21 8 -16 8 -20 -1 -14 -9 6 -9 2 -1 -14 9 -16 9 -21 -1 -21
-10 0 -10 -2 0 -9 14 -9 13 -32 -3 -43 -7 -5 -7 -10 0 -15 14 -11 15 -53 1
-53 -6 0 -5 -4 3 -9 13 -8 13 -12 0 -27 -12 -16 -12 -17 1 -9 13 8 13 7 1 -8
-7 -10 -9 -17 -3 -17 11 0 11 -18 -1 -37 -4 -6 -2 -15 4 -19 8 -4 7 -9 -2 -15
-9 -6 -10 -9 -2 -9 12 0 12 -17 0 -37 -4 -6 -2 -15 4 -19 8 -4 7 -9 -2 -15 -9
-6 -10 -9 -2 -9 12 0 12 -17 0 -37 -4 -6 -2 -15 4 -19 8 -4 7 -9 -2 -15 -9 -6
-10 -9 -2 -9 12 0 12 -17 0 -37 -4 -6 -2 -15 4 -19 8 -4 7 -9 -2 -15 -9 -6
-10 -9 -2 -9 12 0 12 -17 0 -37 -4 -6 -2 -15 4 -19 8 -4 7 -9 -2 -15 -9 -6
-10 -9 -2 -9 12 0 12 -17 0 -37 -4 -6 -2 -15 4 -19 8 -4 7 -9 -2 -15 -9 -6
-10 -9 -2 -9 12 0 12 -17 0 -37 -4 -6 -2 -15 4 -19 8 -4 7 -9 -2 -15 -9 -6
-10 -9 -2 -9 12 0 12 -17 0 -37 -4 -6 -2 -15 4 -19 8 -4 7 -9 -2 -15 -9 -6
-10 -9 -2 -9 12 0 12 -17 0 -37 -4 -6 -2 -15 4 -19 8 -4 7 -9 -2 -15 -9 -6
-10 -9 -2 -9 12 0 12 -17 0 -37 -4 -6 -2 -15 4 -19 8 -4 7 -9 -2 -15 -9 -6
-10 -9 -2 -9 12 0 12 -17 0 -37 -4 -6 -2 -15 4 -19 8 -4 7 -9 -2 -15 -9 -6
-10 -9 -2 -9 12 0 12 -17 0 -37 -4 -6 -2 -15 4 -19 8 -4 7 -9 -2 -15 -9 -6
-10 -9 -2 -9 12 0 12 -24 0 -36 -4 -4 -2 -13 4 -21 9 -10 8 -13 -2 -13 -9 0
-10 -3 -4 -8 15 -11 17 -32 3 -32 -6 0 -3 -6 7 -14 16 -12 17 -16 6 -30 -11
-13 -11 -17 3 -22 12 -5 13 -10 5 -26 -6 -11 -7 -18 -2 -15 5 3 15 -4 23 -16
12 -21 12 -21 -5 -7 -17 14 -17 14 -7 -6 6 -12 8 -24 5 -28 -3 -3 -1 -6 7 -6
10 0 10 -3 1 -14 -9 -11 -9 -16 0 -22 8 -5 9 -3 4 6 -5 8 -4 11 3 6 6 -4 9
-13 5 -21 -3 -9 1 -15 8 -15 11 0 11 -3 -1 -10 -8 -5 -10 -10 -4 -10 5 0 9
-13 8 -29 -1 -24 1 -28 15 -24 12 5 13 3 4 -7 -13 -14 -6 -43 8 -34 5 3 9 1 9
-5 0 -5 -6 -12 -12 -14 -8 -3 -5 -6 5 -6 12 -1 17 -7 15 -20 -2 -10 6 -29 17
-42 11 -12 14 -19 7 -15 -10 6 -10 2 0 -19 8 -19 14 -22 20 -13 7 10 8 9 5 -2
-2 -8 5 -26 17 -39 11 -13 15 -21 8 -17 -6 4 -12 2 -12 -3 0 -6 5 -11 10 -11
6 0 10 -11 10 -24 0 -14 5 -28 11 -31 6 -4 8 -13 5 -21 -3 -7 0 -16 6 -20 7
-4 8 -3 4 4 -12 20 6 13 25 -9 10 -12 16 -26 13 -30 -3 -5 0 -9 5 -9 6 0 11
-10 11 -21 0 -19 2 -20 17 -8 11 10 14 10 9 2 -4 -7 -3 -13 2 -13 12 0 34 -49
27 -60 -6 -10 22 -40 37 -40 6 0 0 8 -13 18 -17 15 -19 21 -9 27 8 5 11 4 7
-2 -4 -6 4 -18 18 -27 15 -10 23 -23 20 -35 -2 -11 3 -25 11 -32 9 -7 14 -8
14 -1 0 6 -5 12 -12 14 -7 3 -5 7 6 11 10 4 15 3 11 -3 -3 -6 -1 -10 5 -10 6
0 10 -6 9 -12 -3 -27 1 -39 12 -32 8 4 7 9 -2 16 -11 8 -11 9 1 5 8 -2 14 -10
13 -18 -1 -8 7 -25 18 -39 l21 -25 -18 30 c-13 22 -14 27 -2 18 8 -7 18 -9 22
-5 4 4 7 2 6 -3 -4 -19 0 -38 7 -32 3 4 12 2 20 -4 10 -9 11 -15 2 -26 -9 -10
-9 -12 2 -9 22 8 98 -65 101 -96 1 -15 5 -26 8 -25 16 4 53 -18 61 -36 l10
-22 -5 22 c-3 20 -1 21 15 12 10 -5 19 -12 19 -15 0 -3 -6 -2 -12 2 -7 4 -4
-2 6 -14 23 -26 28 -28 19 -5 -4 11 -3 14 5 9 7 -4 12 -11 12 -16 0 -6 17 -25
37 -44 27 -24 40 -31 46 -23 7 9 10 9 13 0 3 -7 12 -9 20 -6 10 4 12 0 8 -10
-4 -12 -1 -15 15 -12 12 2 21 -1 21 -7 0 -5 8 -7 17 -4 10 4 14 4 10 0 -4 -4
1 -13 11 -21 10 -9 11 -12 2 -7 -9 4 -12 3 -7 -2 5 -5 18 -9 30 -9 13 -1 21
-6 19 -15 -3 -11 0 -11 12 -1 11 9 16 9 22 0 5 -8 3 -10 -7 -4 -12 7 -12 5 -1
-6 11 -12 14 -12 22 1 9 13 10 13 11 0 1 -8 1 -18 0 -23 -2 -11 14 -8 28 6 11
10 13 9 8 -5 -3 -10 -1 -20 5 -24 7 -4 8 -3 4 4 -4 7 -2 12 3 12 6 0 11 -7 11
-16 0 -11 6 -14 20 -9 11 4 20 2 20 -4 0 -6 5 -11 11 -11 5 0 8 4 5 8 -3 5 1
9 9 9 8 0 11 -5 8 -10 -4 -7 1 -8 12 -3 14 5 16 4 7 -7 -16 -18 -3 -30 16 -15
11 10 17 9 26 -4 8 -11 26 -15 65 -13 29 1 56 7 60 12 3 5 14 12 24 16 11 4
15 12 11 18 -4 8 -3 9 5 5 6 -4 9 -12 6 -17 -4 -5 -2 -9 3 -9 6 0 13 8 16 17
6 15 8 15 16 3 7 -10 10 -11 10 -2 0 6 6 12 14 12 7 0 19 7 26 15 7 9 19 14
27 11 8 -3 12 -2 9 2 -3 4 5 14 17 22 20 12 21 12 8 -4 -12 -14 -12 -16 3 -10
9 3 16 12 16 20 0 8 5 14 11 14 5 0 7 -5 3 -11 -4 -7 1 -7 16 1 18 10 20 14 9
21 -9 6 -10 9 -2 9 6 0 15 -5 18 -11 5 -7 14 -4 27 8 11 10 23 17 26 15 4 -2
8 2 10 10 2 9 0 8 -7 -2 -6 -8 -11 -10 -11 -4 0 18 13 24 27 12 11 -9 12 -7 7
6 -5 14 -2 17 12 15 11 -2 33 6 50 18 17 12 34 20 37 16 4 -3 5 4 2 15 -3 18
-1 20 21 12 17 -7 23 -6 21 3 -1 7 3 11 10 10 7 -2 10 6 8 18 -4 18 -2 19 11
8 12 -10 18 -9 32 4 10 11 12 17 4 17 -7 0 -12 -4 -12 -10 0 -5 -5 -10 -11
-10 -8 0 -9 4 0 13 6 8 9 16 6 18 -2 3 9 4 25 3 17 -1 27 2 24 7 -8 14 15 39
37 39 10 0 22 7 27 16 5 9 13 16 18 15 5 0 8 11 7 26 -2 25 -2 25 13 7 15 -18
15 -18 10 0 -5 15 -2 17 14 13 16 -4 18 -2 10 13 -11 21 5 39 33 35 9 -2 22 5
28 16 5 11 15 17 20 13 7 -4 7 1 0 15 -10 17 -9 22 3 27 8 3 20 3 26 -1 5 -3
13 1 16 9 3 9 11 13 16 10 6 -4 6 1 -1 13 -13 25 -3 37 17 20 12 -9 14 -9 9 0
-8 13 12 53 27 53 5 0 1 -9 -8 -19 -14 -15 -15 -21 -4 -27 7 -4 10 -3 5 1 -4
5 -1 15 7 24 8 9 16 21 18 26 2 6 7 9 12 7 5 -2 4 4 -3 12 -13 16 -11 18 44
61 19 16 19 16 -5 10 l-25 -6 25 15 c14 8 29 12 34 9 5 -3 4 3 -2 13 -13 24
22 78 46 69 12 -4 13 -3 2 10 -9 11 -9 15 -1 15 7 0 9 5 5 12 -5 7 -2 9 8 6 8
-4 15 0 15 8 0 7 -5 11 -10 7 -5 -3 -3 5 4 18 7 13 12 28 11 32 -1 5 2 6 8 2
5 -3 10 -1 10 5 0 6 6 8 13 4 6 -4 4 2 -6 13 -18 20 -18 21 0 19 13 -1 18 6
18 26 -1 15 2 26 5 26 18 -1 21 4 10 17 -11 13 -10 14 4 9 12 -5 15 -2 10 11
-4 9 -1 20 6 25 7 4 13 24 13 44 1 20 4 36 8 36 4 0 10 7 13 16 3 8 2 12 -3 9
-5 -3 -12 -1 -16 5 -3 5 1 10 9 10 9 0 13 7 11 20 -2 11 2 20 8 20 8 0 8 3 2
8 -16 11 -18 35 -2 29 7 -3 14 1 14 9 0 7 -5 10 -11 7 -6 -4 -5 1 3 10 7 9 11
28 9 41 -3 17 -1 23 8 19 9 -3 12 6 10 31 -2 19 2 37 8 40 6 3 5 5 -3 5 -11 1
-11 4 -1 16 7 9 8 15 2 15 -12 0 -10 33 3 42 6 5 4 8 -5 8 -13 0 -13 1 0 10 8
5 10 10 4 10 -6 0 -11 7 -11 15 0 8 5 15 10 15 5 0 5 6 -2 13 -8 10 -7 17 1
25 7 7 8 12 2 12 -6 0 -11 7 -11 15 0 8 5 15 10 15 5 0 5 6 -2 13 -8 10 -7 17
1 25 7 7 8 12 2 12 -6 0 -11 7 -11 15 0 8 5 15 10 15 5 0 5 6 -2 13 -8 10 -7
17 1 25 7 7 8 12 2 12 -6 0 -11 7 -11 15 0 8 5 15 10 15 5 0 5 6 -2 13 -8 10
-7 17 1 25 7 7 8 12 2 12 -6 0 -11 7 -11 15 0 8 5 15 10 15 5 0 5 6 -2 13 -8
10 -7 17 1 25 7 7 8 12 2 12 -6 0 -11 7 -11 15 0 8 5 15 10 15 5 0 5 6 -2 13
-8 10 -7 17 1 25 7 7 8 12 2 12 -6 0 -11 7 -11 15 0 8 5 15 10 15 5 0 5 6 -2
13 -8 10 -7 17 1 25 7 7 8 12 2 12 -6 0 -11 7 -11 15 0 8 5 15 10 15 5 0 5 6
-2 13 -8 10 -7 17 1 25 7 7 8 12 2 12 -6 0 -11 7 -11 15 0 8 5 15 10 15 5 0 5
6 -2 13 -8 10 -7 17 1 25 7 7 8 12 2 12 -6 0 -11 7 -11 15 0 8 5 15 10 15 5 0
5 6 -2 13 -8 10 -7 17 1 25 7 7 8 12 2 12 -6 0 -11 7 -11 15 0 8 5 15 10 15 5
0 5 6 -2 13 -8 10 -7 17 1 25 7 7 8 12 2 12 -6 0 -11 7 -11 15 0 8 4 15 9 15
5 0 6 6 1 12 -10 17 -11 68 -1 62 4 -3 8 0 8 5 0 6 -4 11 -8 11 -9 0 -7 53 2
69 4 5 2 12 -3 16 -7 3 -7 15 -1 29 5 13 6 26 3 29 -9 10 -10 77 -1 77 5 0 7
4 4 8 -3 5 1 9 9 9 8 0 15 -5 15 -10 0 -5 6 -5 13 2 10 8 17 7 25 -1 7 -7 12
-8 12 -2 0 6 7 11 15 11 8 0 15 -5 15 -10 0 -6 5 -5 13 1 8 7 18 6 31 -3 10
-8 25 -11 33 -8 8 3 19 0 24 -8 7 -12 9 -12 9 0 0 10 3 11 14 2 9 -7 17 -8 20
-2 8 12 30 9 52 -9 16 -13 17 -13 9 0 -8 13 -7 13 8 1 9 -7 17 -10 17 -5 0 5
5 2 10 -6 7 -11 10 -12 10 -2 0 9 10 6 33 -9 l32 -23 -20 24 -20 23 27 -17
c15 -10 32 -15 38 -11 5 3 10 1 10 -6 0 -10 3 -10 12 -1 9 9 16 8 32 -6 11 -9
16 -11 12 -4 -4 6 -2 12 3 12 6 0 11 -4 11 -9 0 -6 9 -8 20 -6 11 2 22 -1 26
-7 4 -6 10 -5 15 3 8 12 11 11 19 -2 6 -11 18 -15 35 -11 16 3 25 0 25 -8 0
-9 4 -9 17 1 13 11 17 11 20 1 3 -6 9 -10 14 -6 5 3 9 0 9 -7 0 -7 7 -4 16 7
8 10 13 13 9 7 -10 -21 4 -34 24 -23 12 6 22 5 31 -3 10 -10 11 -9 6 3 -4 8 0
6 8 -4 10 -13 16 -15 16 -7 0 11 3 11 15 1 8 -6 20 -10 27 -7 7 2 21 0 31 -5
12 -6 17 -5 17 4 0 9 3 9 12 0 7 -7 20 -12 30 -12 10 0 18 -4 18 -10 0 -5 5
-10 11 -10 5 0 8 4 4 9 -3 6 4 8 16 6 13 -3 25 -9 29 -14 3 -6 11 -2 18 9 7
12 8 21 2 25 -6 3 -10 12 -10 18 0 7 4 6 10 -3 5 -8 10 -11 10 -7 0 5 -9 20
-20 34 -11 14 -17 30 -13 36 3 6 1 7 -6 3 -6 -4 -8 -12 -5 -18 4 -6 2 -8 -4
-5 -5 4 -9 18 -8 32 2 13 0 23 -3 22 -3 -1 -7 2 -8 6 0 5 -14 22 -29 38 -15
16 -24 29 -19 29 4 0 1 8 -8 18 -10 10 -15 22 -12 25 3 4 -1 3 -7 -3 -7 -5
-17 -10 -22 -10 -6 0 -4 5 4 10 12 8 12 10 1 10 -8 0 -11 7 -8 19 3 14 1 18
-9 14 -9 -3 -14 2 -14 17 0 17 -4 20 -22 16 -13 -3 -17 -3 -10 0 6 3 10 10 7
15 -4 5 2 6 12 3 13 -4 13 -2 -3 8 -12 7 -19 19 -17 26 3 6 9 10 14 6 14 -8
11 3 -6 20 -14 14 -12 15 15 11 28 -3 29 -2 18 18 -10 19 -9 21 4 9 13 -10 18
-10 24 -1 4 8 3 9 -4 5 -7 -4 -12 -2 -12 3 0 6 4 11 9 11 5 0 11 9 14 21 5 17
9 19 25 10 18 -9 19 -8 14 11 -3 14 -1 19 6 14 7 -4 12 -1 12 8 0 9 5 16 11
16 5 0 7 -5 3 -12 -4 -7 -3 -8 5 -4 9 6 9 11 0 22 -7 9 -8 14 -2 12 6 -2 19 6
29 17 11 11 16 16 12 11 -5 -6 -8 -15 -8 -20 0 -6 5 -3 11 7 6 9 15 15 21 11
7 -4 7 0 0 13 -9 15 -7 23 9 36 10 9 23 17 27 17 4 -1 -3 -9 -16 -20 -21 -17
-21 -19 -3 -17 11 0 18 4 15 8 -2 4 1 11 7 14 5 4 8 13 5 21 -4 9 2 14 15 14
19 0 19 1 5 16 -11 11 -29 14 -61 11 -24 -2 -42 0 -39 5 4 7 -34 13 -58 9 -5
0 -8 3 -8 8 0 5 -9 11 -20 14 -11 3 -18 1 -14 -4 3 -5 -2 -6 -10 -3 -9 3 -16
10 -16 16 0 5 -6 6 -12 2 -17 -11 -48 -12 -48 -3 0 5 -7 5 -17 2 -12 -5 -14
-3 -8 8 7 12 6 12 -7 1 -13 -10 -18 -10 -24 -1 -5 8 -3 9 6 4 9 -5 11 -4 6 4
-4 6 -12 9 -17 6 -21 -14 -48 -13 -53 2 -5 12 -9 13 -21 3 -12 -10 -16 -9 -21
3 -4 12 -12 14 -27 8 -24 -9 -50 -4 -43 8 3 4 -1 8 -9 8 -8 0 -11 -5 -8 -10 4
-6 -4 -3 -17 6 -15 10 -29 13 -39 8 -20 -11 -33 -10 -47 3 -9 8 -9 13 0 18 8
6 7 8 -2 8 -10 0 -10 5 -2 20 8 15 8 20 -2 20 -9 0 -9 3 2 10 8 5 10 10 5 10
-6 0 -11 9 -12 20 -1 11 2 20 7 20 5 0 5 13 0 29 -4 15 -4 34 1 42 13 21 -19
51 -42 39 -11 -7 -20 -7 -24 0 -3 5 -11 7 -18 5 -30 -11 -67 -13 -62 -4 4 5
11 6 17 3 6 -4 8 -3 5 3 -3 5 -24 9 -47 9 -22 -1 -40 2 -40 6 0 4 -7 4 -17 1
-10 -4 -14 -2 -9 5 4 7 -1 10 -14 7 -11 -2 -22 0 -24 4 -5 8 -64 6 -73 -3 -4
-3 -11 -2 -17 3 -18 13 -48 22 -41 11 3 -6 -1 -7 -9 -4 -9 3 -16 11 -16 16 0
6 -6 6 -14 -1 -10 -9 -16 -9 -21 -1 -5 8 -11 7 -23 -2 -13 -11 -15 -10 -10 15
3 15 2 27 -2 27 -4 0 -7 7 -7 15 0 8 5 15 11 15 6 0 6 4 -2 12 -7 7 -8 17 -1
30 9 17 2 23 -23 19 -5 0 -8 5 -8 12 0 8 -4 7 -10 -3 -7 -11 -10 -11 -10 -2 0
8 -5 10 -12 6 -19 -12 -48 -12 -48 -1 0 5 -6 5 -13 -2 -10 -8 -17 -7 -25 1 -7
7 -12 8 -12 2 0 -6 -7 -11 -15 -11 -8 0 -15 5 -15 10 0 5 -8 3 -17 -4 -14 -12
-15 -12 -9 -1 7 11 4 12 -13 3 -16 -9 -21 -9 -21 0 0 8 -4 8 -14 0 -11 -9 -20
-10 -35 -1 -28 15 -27 23 2 10 20 -10 20 -10 5 3 -10 8 -16 16 -13 18 2 3 -4
5 -15 5 -10 0 -16 -4 -14 -8 3 -4 0 -8 -5 -8 -6 0 -11 7 -11 15 0 18 -12 19
-28 3 -9 -9 -12 -9 -12 1 0 10 -3 11 -13 2 -16 -13 -28 -5 -21 14 3 8 -3 12
-18 10 -24 -3 -27 4 -31 63 0 6 -4 12 -9 12 -5 0 -7 4 -3 9 3 5 0 13 -6 17 -8
4 -7 9 2 15 11 7 10 9 -5 9 -15 0 -16 3 -7 14 9 11 8 15 -4 20 -9 3 -13 11
-10 17 4 5 -1 19 -10 29 -15 17 -15 19 2 30 17 11 17 11 -1 6 -15 -5 -17 -2
-13 14 3 11 1 20 -5 20 -6 0 -7 7 -4 15 3 9 -1 18 -9 22 -12 4 -13 9 -4 19 8
9 8 14 1 14 -11 0 -9 31 3 50 3 6 1 10 -4 10 -6 0 -11 5 -11 11 0 5 5 7 10 4
6 -4 10 5 10 19 0 14 5 26 11 26 8 0 7 6 -2 17 -10 11 -10 14 -1 9 6 -4 12 -3
12 3 0 10 19 9 38 -2 7 -5 12 -3 12 3 0 6 4 9 9 6 5 -4 11 -1 13 6 5 13 48 19
48 7 0 -4 14 -4 30 1 18 5 30 5 30 0 0 -6 12 -5 27 1 20 7 28 6 35 -3 6 -10 8
-10 8 2 0 12 2 12 9 2 7 -11 11 -11 23 1 10 11 19 12 33 5 12 -7 16 -7 11 0
-3 5 3 12 14 15 11 3 20 1 20 -4 0 -6 7 -6 18 -1 9 5 25 8 35 7 9 -2 15 1 11
6 -3 5 -9 7 -14 4 -5 -3 -11 -2 -14 3 -2 4 5 9 17 9 12 1 30 12 40 25 10 13
15 17 11 9 -5 -11 -3 -13 10 -8 10 4 22 7 27 7 6 0 8 4 5 8 -3 5 1 9 9 9 8 0
12 -4 9 -9 -10 -16 9 -8 21 9 15 21 0 74 -19 67 -7 -3 -21 5 -32 17 -10 13
-13 19 -5 14 11 -6 13 -3 8 14 -4 17 -2 21 9 17 9 -3 14 1 14 12 0 13 2 14 9
3 6 -9 11 -10 15 -2 4 6 12 9 17 6 5 -4 12 1 15 10 4 9 13 14 22 10 12 -4 13
-3 2 10 -9 11 -9 15 -1 15 7 0 11 8 9 18 -1 9 1 22 5 29 10 15 -25 34 -42 23
-8 -4 -27 -4 -42 0 -19 6 -29 5 -29 -2 0 -7 -4 -7 -13 1 -8 6 -18 7 -23 3 -4
-4 -2 2 6 12 14 18 13 19 -2 13 -12 -4 -15 -2 -11 9 4 11 0 15 -12 12 -10 -2
-20 4 -22 12 -4 13 -3 13 7 0 10 -13 11 -13 7 0 -2 9 -14 14 -30 13 -15 -1
-27 1 -27 5 0 7 -16 11 -58 14 -8 1 -10 9 -6 22 4 17 3 18 -6 6 -9 -13 -12
-12 -25 4 -14 18 -20 15 -16 -7 1 -5 -3 -6 -8 -2 -6 3 -7 13 -4 21 7 19 -16
64 -33 64 -6 0 -14 -7 -18 -15 -3 -8 0 -15 6 -15 6 0 8 -3 5 -6 -4 -4 -13 -2
-20 5 -12 9 -13 6 -10 -16 4 -22 2 -25 -6 -13 -10 13 -12 13 -21 0 -6 -10 -10
-11 -10 -2 0 7 -13 12 -31 12 -16 0 -28 -4 -25 -8 3 -5 -1 -9 -9 -9 -8 0 -12
4 -9 9 8 12 -10 10 -24 -4 -9 -9 -12 -9 -12 0 0 9 -5 10 -19 2 -14 -7 -22 -7
-26 0 -5 8 -11 7 -21 -1 -8 -6 -14 -7 -14 -2 0 6 -12 8 -26 5 -21 -4 -25 -2
-19 8 6 10 4 12 -9 7 -10 -4 -19 -1 -22 8 -4 8 -10 12 -15 9 -5 -3 -9 0 -9 5
0 6 -11 11 -25 11 -19 0 -23 4 -18 18 5 14 3 13 -10 -3 -10 -12 -16 -15 -17
-7 0 7 -4 11 -9 8 -4 -3 -23 -1 -40 4 -28 8 -32 7 -27 -7z m-664 -19 c0 -8
-19 -13 -24 -6 -3 5 1 9 9 9 8 0 15 -2 15 -3z m-564 -379 c-8 -8 -18 -15 -22
-15 -3 0 -1 7 6 15 7 8 17 15 22 15 5 0 3 -7 -6 -15z m2054 -45 c0 -5 -5 -10
-11 -10 -5 0 -7 5 -4 10 3 6 8 10 11 10 2 0 4 -4 4 -10z m-1287 -310 c4 0 5 5
1 11 -3 6 7 4 24 -5 16 -8 32 -12 36 -9 3 4 6 1 6 -5 0 -7 5 -12 11 -12 5 0 8
4 5 8 -2 4 7 7 22 6 66 -4 63 -3 52 -24 -8 -14 -8 -20 0 -20 7 0 8 -6 1 -19
-6 -10 -7 -21 -4 -25 3 -3 -2 -6 -13 -6 -10 0 -15 -4 -9 -8 14 -10 17 -32 5
-32 -5 0 -10 -5 -10 -11 0 -5 4 -8 8 -5 5 3 6 -8 4 -24 -3 -19 -8 -27 -16 -23
-6 4 -4 -2 4 -12 8 -10 10 -16 3 -12 -6 4 -14 3 -18 -3 -3 -5 0 -10 7 -10 10
0 10 -2 -1 -9 -7 -5 -15 -23 -17 -41 -2 -17 -6 -36 -9 -41 -4 -5 -2 -9 4 -9
12 0 9 -19 -7 -45 -8 -14 -12 -16 -12 -5 0 9 -3 11 -8 5 -9 -13 -35 -13 -44
-1 -10 14 -39 16 -31 3 5 -8 2 -8 -9 0 -8 7 -18 10 -21 6 -4 -3 -7 0 -7 7 0
11 -3 11 -12 2 -8 -8 -17 -8 -30 -1 -10 5 -24 7 -30 3 -7 -4 -8 -3 -4 5 4 6 0
18 -9 27 -12 13 -13 19 -4 31 10 11 10 13 0 11 -8 -2 -15 5 -16 15 -2 9 0 17
5 17 5 0 7 11 5 25 -1 14 2 25 7 25 6 0 8 6 5 14 -3 7 0 19 6 25 8 8 8 11 -1
11 -6 0 -9 7 -6 15 4 8 11 12 18 8 6 -4 5 1 -3 10 -12 16 -12 17 5 11 16 -6
17 -5 7 7 -18 19 -16 32 3 25 14 -6 15 -4 4 9 -11 13 -11 16 0 13 7 -2 15 3
18 11 3 9 0 11 -9 7 -8 -4 -6 -1 4 7 9 8 17 21 17 30 0 18 30 28 45 15 5 -4
13 -8 18 -8z m-985 -115 c-3 -3 -9 2 -12 12 -6 14 -5 15 5 6 7 -7 10 -15 7
-18z m518 -62 c-3 -8 1 -16 9 -19 8 -4 13 -10 10 -15 -3 -4 4 -6 16 -4 17 4
20 2 11 -7 -14 -14 -16 -32 -3 -23 5 3 12 1 16 -5 3 -5 1 -10 -4 -10 -6 0 -11
-5 -11 -11 0 -6 7 -9 15 -6 8 4 17 1 21 -5 5 -7 2 -8 -7 -4 -8 4 -6 1 4 -7 20
-16 23 -32 5 -21 -9 5 -9 2 1 -9 15 -18 26 -23 16 -7 -3 6 -1 10 4 10 6 0 11
-12 11 -26 0 -14 4 -22 10 -19 6 3 7 -1 4 -10 -4 -9 -13 -14 -20 -11 -8 3 -14
1 -14 -4 0 -12 -22 -9 -32 5 -5 6 -8 6 -8 -1 0 -12 -44 -13 -56 -1 -4 3 -14 3
-23 -1 -20 -9 -42 -9 -58 1 -8 5 -13 3 -13 -3 0 -7 -6 -8 -19 0 -14 7 -22 7
-26 0 -5 -8 -11 -8 -20 0 -10 8 -15 8 -20 0 -5 -8 -12 -5 -22 7 -8 10 -12 12
-8 6 4 -8 0 -13 -10 -13 -8 0 -18 7 -21 15 -4 8 -10 12 -15 9 -5 -3 -9 1 -10
8 0 7 -4 4 -9 -7 -7 -17 -9 -17 -9 -3 -1 11 -6 15 -16 12 -8 -4 -17 1 -21 10
-5 13 -9 14 -20 5 -8 -7 -17 -9 -21 -5 -3 3 -1 6 6 6 8 0 11 6 7 16 -4 10 -2
13 7 8 6 -4 3 3 -8 16 -15 18 -16 22 -4 18 9 -4 20 2 27 13 11 17 16 18 35 8
21 -12 21 -11 7 6 -9 11 -10 16 -2 11 6 -4 12 -2 12 4 0 7 7 7 23 -1 20 -11
21 -11 8 5 -12 14 -12 16 3 10 9 -3 24 0 33 7 14 12 16 12 9 -1 -6 -11 -4 -11
6 1 10 12 19 14 37 7 21 -7 22 -6 11 7 -10 12 -9 15 6 16 11 1 22 1 27 0 4 0
7 3 7 8 0 5 8 11 18 15 9 3 24 9 32 12 11 4 12 3 2 -4 -9 -6 -2 -9 20 -9 18 0
27 2 21 5 -7 2 -13 8 -13 14 0 6 6 5 15 -2 9 -7 14 -19 11 -27z m959 9 c-3 -3
3 -15 12 -26 17 -20 17 -20 -2 -6 -17 13 -17 12 3 -14 12 -15 19 -33 15 -40
-4 -6 1 -4 12 4 16 14 17 13 12 -5 -7 -21 3 -45 19 -48 5 -1 9 -10 8 -19 0
-15 2 -15 15 -5 10 8 13 9 8 0 -4 -6 -3 -14 3 -18 18 -11 11 -31 -15 -43 -16
-7 -26 -8 -31 -1 -4 6 -11 6 -20 -2 -11 -9 -17 -9 -28 0 -10 8 -16 9 -21 1 -3
-6 -12 -7 -18 -3 -17 10 -47 11 -47 1 0 -5 -8 -5 -17 -1 -10 5 -30 8 -44 7
-20 -1 -31 7 -44 29 -10 16 -13 27 -6 23 6 -4 11 -2 11 4 0 6 5 8 13 4 7 -5 7
-1 -3 12 -8 10 -10 16 -5 11 10 -9 45 21 45 40 0 7 4 13 9 13 6 0 8 9 6 20 -3
17 -1 18 14 11 14 -8 17 -6 17 12 -1 14 4 21 13 19 12 -3 12 -1 0 14 -8 10 -9
15 -3 11 6 -3 20 0 30 7 14 10 23 11 32 4 7 -6 10 -13 7 -16z m-931 -10 c3 -5
-1 -9 -9 -9 -8 0 -12 4 -9 9 3 4 7 8 9 8 2 0 6 -4 9 -8z m791 -102 c-3 -5 -12
-10 -18 -10 -7 0 -6 4 3 10 19 12 23 12 15 0z m-2633 -1097 c-6 -2 -10 -8 -8
-12 3 -4 -1 -8 -9 -8 -11 0 -12 4 -4 14 6 7 17 13 23 12 7 0 6 -2 -2 -6z
m4513 -44 c-4 -5 -12 -9 -18 -8 -9 0 -8 2 1 6 6 2 9 10 6 15 -4 7 -2 8 5 4 6
-4 9 -12 6 -17z m39 -60 c-3 -5 -10 -7 -15 -3 -5 3 -7 10 -3 15 3 5 10 7 15 3
5 -3 7 -10 3 -15z m-4628 -21 c4 -7 4 -10 -1 -6 -4 4 -15 2 -24 -5 -14 -11
-14 -10 -2 6 16 20 18 21 27 5z m1219 -1928 c3 -5 2 -10 -4 -10 -5 0 -13 5
-16 10 -3 6 -2 10 4 10 5 0 13 -4 16 -10z m2009 -275 c-4 -8 -11 -12 -16 -9
-6 4 -5 10 3 15 19 12 19 11 13 -6z m-66 -65 c-7 -10 -14 -17 -17 -15 -4 4 18
35 25 35 2 0 -1 -9 -8 -20z m-1486 -180 c6 0 9 -3 6 -6 -9 -8 -48 14 -48 27 0
6 7 3 16 -5 8 -9 20 -16 26 -16z m1185 -65 c0 -8 -4 -12 -9 -9 -5 3 -6 10 -3
15 9 13 12 11 12 -6z m-1016 -52 c2 1 1 -2 -3 -8 -5 -5 -22 4 -41 24 l-32 34
36 -27 c20 -14 38 -25 40 -23z m925 -21 c-17 -16 -18 -16 -5 5 7 12 15 20 18
17 3 -2 -3 -12 -13 -22z m-100 -60 c-17 -16 -18 -16 -5 5 7 12 15 20 18 17 3
-2 -3 -12 -13 -22z"/>
<path d="M1816 4023 c-6 -14 -5 -15 5 -6 7 7 10 15 7 18 -3 3 -9 -2 -12 -12z"/>
<path d="M2040 4919 c0 -5 5 -7 10 -4 6 3 10 8 10 11 0 2 -4 4 -10 4 -5 0 -10
-5 -10 -11z"/>
<path d="M3425 3990 c3 -5 8 -10 11 -10 2 0 4 5 4 10 0 6 -5 10 -11 10 -5 0
-7 -4 -4 -10z"/>
<path d="M710 3479 c0 -5 5 -7 10 -4 6 3 10 8 10 11 0 2 -4 4 -10 4 -5 0 -10
-5 -10 -11z"/>
<path d="M155 3270 c3 -5 8 -10 11 -10 2 0 4 5 4 10 0 6 -5 10 -11 10 -5 0 -7
-4 -4 -10z"/>
<path d="M210 3222 c0 -5 11 -14 25 -20 14 -6 25 -10 25 -8 0 2 -11 11 -25 20
-14 9 -25 13 -25 8z"/>
<path d="M4820 3151 c0 -6 4 -13 10 -16 6 -3 7 1 4 9 -7 18 -14 21 -14 7z"/>
<path d="M313 3127 c0 -8 6 -14 14 -14 9 0 10 4 2 14 -6 7 -12 13 -14 13 -1 0
-2 -6 -2 -13z"/>
<path d="M486 2722 c-3 -5 1 -9 9 -9 8 0 12 4 9 9 -3 4 -7 8 -9 8 -2 0 -6 -4
-9 -8z"/>
<path d="M4957 2673 c-12 -12 -7 -32 6 -27 8 3 14 11 14 19 0 16 -9 19 -20 8z"/>
<path d="M1390 950 c0 -5 5 -10 11 -10 5 0 7 5 4 10 -3 6 -8 10 -11 10 -2 0
-4 -4 -4 -10z"/>
<path d="M3656 846 c-12 -19 -13 -27 -3 -32 6 -4 9 -3 4 1 -4 5 0 17 10 27 9
10 14 20 11 23 -3 3 -13 -6 -22 -19z"/>
<path d="M1471 794 c0 -11 3 -14 6 -6 3 7 2 16 -1 19 -3 4 -6 -2 -5 -13z"/>
<path d="M3584 728 l-19 -23 23 19 c21 18 27 26 19 26 -2 0 -12 -10 -23 -22z"/>
<path d="M1520 726 c0 -2 7 -7 16 -10 8 -3 12 -2 9 4 -6 10 -25 14 -25 6z"/>
<path d="M1750 490 c0 -5 5 -10 11 -10 5 0 7 5 4 10 -3 6 -8 10 -11 10 -2 0
-4 -4 -4 -10z"/>
<path d="M3356 491 c-4 -5 -2 -12 3 -15 5 -4 12 -2 15 3 4 5 2 12 -3 15 -5 4
-12 2 -15 -3z"/>
<path d="M1786 447 c3 -10 9 -15 12 -12 3 3 0 11 -7 18 -10 9 -11 8 -5 -6z"/>
<path d="M1810 421 c0 -5 9 -12 19 -16 11 -3 22 -14 24 -23 4 -15 5 -15 6 -1
0 9 -10 24 -24 33 -14 9 -25 12 -25 7z"/>
<path d="M3226 362 c-2 -4 4 -8 14 -8 10 0 16 4 14 8 -3 4 -9 8 -14 8 -5 0
-11 -4 -14 -8z"/>
</g>
</svg>
